<?xml version="1.0" encoding="UTF-8"?>
<svg xmlns="http://www.w3.org/2000/svg" viewBox="0 0 400 48" role="img" aria-label="SmartArchiving Logo" shape-rendering="geometricPrecision">
  <defs>
    <linearGradient id="brandGrad" x1="0%" y1="0%" x2="100%" y2="0%">
      <stop offset="10%" stop-color="#1967b4"/>
      <stop offset="100%" stop-color="#31adb6"/>
    </linearGradient>
  </defs>

  <g transform="translate(4, 4)">
    <circle cx="4" cy="20" r="2.2" fill="#1967b4"/>
    <line x1="7" y1="20" x2="13" y2="20" stroke="#1967b4" stroke-width="1.5" stroke-linecap="round"/>

    <g transform="translate(14, 6)">
      <path d="M9 0 L17 3 V9 Q17 14 9 16 Q1 14 1 9 V3 Z" fill="#edf5ff" stroke="#1967b4" stroke-width="1.5"/>
      <path d="M5 8 L7.5 10.5 L13.5 5" fill="none" stroke="#31adb6" stroke-width="1.8" stroke-linecap="round" stroke-linejoin="round"/>
    </g>

    <line x1="32" y1="20" x2="36" y2="20" stroke="#cad4dd" stroke-width="1.5" stroke-linecap="round"/>

    <g transform="translate(38, 10)">
      <rect x="0" y="4" width="16" height="16" rx="2" fill="#1a3a5c" stroke="#1967b4" stroke-width="1.5"/>
      <path d="M3 4 V2.5 Q3 0.5 8 0.5 Q13 0.5 13 2.5 V4" fill="none" stroke="#31adb6" stroke-width="1.5"/>
      <circle cx="8" cy="11" r="2.5" fill="url(#brandGrad)"/>
      <rect x="7.25" y="10.5" width="1.5" height="3" rx="0.4" fill="#1a3a5c"/>
      <rect x="3" y="17" width="10" height="1.5" rx="0.5" fill="#1967b4" opacity="0.55"/>
      <rect x="4.5" y="19.5" width="7" height="1.5" rx="0.5" fill="#31adb6" opacity="0.45"/>
    </g>
  </g>

  <text x="66" y="33" font-family="'Pretendard', 'Malgun Gothic', 'Apple SD Gothic Neo', sans-serif" font-size="28" font-weight="700">
    <tspan fill="#333333">Smart</tspan><tspan fill="url(#brandGrad)">Archiving</tspan>
  </text>
</svg>
